%TF.GenerationSoftware,KiCad,Pcbnew,7.0.1-0*%
%TF.CreationDate,2023-04-17T19:21:01-05:00*%
%TF.ProjectId,project,70726f6a-6563-4742-9e6b-696361645f70,rev?*%
%TF.SameCoordinates,Original*%
%TF.FileFunction,Copper,L1,Top*%
%TF.FilePolarity,Positive*%
%FSLAX46Y46*%
G04 Gerber Fmt 4.6, Leading zero omitted, Abs format (unit mm)*
G04 Created by KiCad (PCBNEW 7.0.1-0) date 2023-04-17 19:21:01*
%MOMM*%
%LPD*%
G01*
G04 APERTURE LIST*
%TA.AperFunction,ComponentPad*%
%ADD10R,1.700000X1.700000*%
%TD*%
%TA.AperFunction,ComponentPad*%
%ADD11O,1.700000X1.700000*%
%TD*%
%TA.AperFunction,ComponentPad*%
%ADD12R,1.050000X1.500000*%
%TD*%
%TA.AperFunction,ComponentPad*%
%ADD13O,1.050000X1.500000*%
%TD*%
%TA.AperFunction,ComponentPad*%
%ADD14C,1.700000*%
%TD*%
%TA.AperFunction,ComponentPad*%
%ADD15C,1.600000*%
%TD*%
%TA.AperFunction,ComponentPad*%
%ADD16O,1.600000X1.600000*%
%TD*%
%TA.AperFunction,ComponentPad*%
%ADD17R,1.600000X1.600000*%
%TD*%
%TA.AperFunction,ComponentPad*%
%ADD18R,1.800000X1.800000*%
%TD*%
%TA.AperFunction,ComponentPad*%
%ADD19C,1.800000*%
%TD*%
%TA.AperFunction,ViaPad*%
%ADD20C,0.800000*%
%TD*%
%TA.AperFunction,Conductor*%
%ADD21C,0.250000*%
%TD*%
%TA.AperFunction,Profile*%
%ADD22C,0.100000*%
%TD*%
G04 APERTURE END LIST*
D10*
%TO.P,U3,1*%
%TO.N,unconnected-(U3-Pad1)*%
X111760000Y-104140000D03*
D11*
%TO.P,U3,2,U1TX*%
%TO.N,/U1TX*%
X114300000Y-104140000D03*
%TO.P,U3,3,U1RX*%
%TO.N,/U1RX*%
X116840000Y-104140000D03*
%TO.P,U3,4,5V*%
%TO.N,+5V*%
X119380000Y-104140000D03*
%TO.P,U3,5*%
%TO.N,unconnected-(U3-Pad5)*%
X121920000Y-104140000D03*
%TO.P,U3,6,GND*%
%TO.N,GND*%
X124460000Y-104140000D03*
%TD*%
D12*
%TO.P,U2,1,VO*%
%TO.N,+3.3V*%
X144780000Y-104140000D03*
D13*
%TO.P,U2,2,GND*%
%TO.N,GND*%
X146050000Y-104140000D03*
%TO.P,U2,3,VI*%
%TO.N,/Vin*%
X147320000Y-104140000D03*
%TD*%
D14*
%TO.P,SW3,1,A*%
%TO.N,+5V*%
X132160000Y-104140000D03*
%TO.P,SW3,2,B*%
%TO.N,/Vin*%
X134660000Y-104140000D03*
%TO.P,SW3,3,C*%
%TO.N,Net-(Battery1-1)*%
X137160000Y-104140000D03*
%TD*%
D10*
%TO.P,SW2,1,1*%
%TO.N,GND*%
X116840000Y-139700000D03*
D11*
%TO.P,SW2,2,2*%
%TO.N,/USER*%
X116840000Y-144780000D03*
%TD*%
D10*
%TO.P,SW1,1,1*%
%TO.N,GND*%
X106680000Y-139700000D03*
D11*
%TO.P,SW1,2,2*%
%TO.N,/MCLR*%
X106680000Y-144780000D03*
%TD*%
D10*
%TO.P,Right1,1*%
%TO.N,/B15*%
X147320000Y-111760000D03*
D11*
%TO.P,Right1,2*%
%TO.N,/B14*%
X147320000Y-114300000D03*
%TO.P,Right1,3*%
%TO.N,/B13*%
X147320000Y-116840000D03*
%TO.P,Right1,4*%
%TO.N,/B12*%
X147320000Y-119380000D03*
%TO.P,Right1,5*%
%TO.N,/B11*%
X147320000Y-121920000D03*
%TO.P,Right1,6*%
%TO.N,/B10*%
X147320000Y-124460000D03*
%TO.P,Right1,7*%
%TO.N,/B9*%
X147320000Y-127000000D03*
%TO.P,Right1,8*%
%TO.N,/B8*%
X147320000Y-129540000D03*
%TO.P,Right1,9*%
%TO.N,/B7*%
X147320000Y-132080000D03*
%TO.P,Right1,10*%
%TO.N,/Vin*%
X147320000Y-134620000D03*
%TO.P,Right1,11*%
%TO.N,+3.3V*%
X147320000Y-137160000D03*
%TO.P,Right1,12*%
%TO.N,GND*%
X147320000Y-139700000D03*
%TD*%
D15*
%TO.P,R5,1*%
%TO.N,Net-(D3-K)*%
X135890000Y-119380000D03*
D16*
%TO.P,R5,2*%
%TO.N,GND*%
X143510000Y-119380000D03*
%TD*%
D15*
%TO.P,R4,1*%
%TO.N,Net-(D2-K)*%
X134620000Y-137160000D03*
D16*
%TO.P,R4,2*%
%TO.N,/YLW_LED*%
X134620000Y-129540000D03*
%TD*%
D15*
%TO.P,R3,1*%
%TO.N,Net-(D1-K)*%
X139700000Y-135890000D03*
D16*
%TO.P,R3,2*%
%TO.N,/GRN_LED*%
X139700000Y-128270000D03*
%TD*%
D15*
%TO.P,R2,1*%
%TO.N,+3.3V*%
X109220000Y-114300000D03*
D16*
%TO.P,R2,2*%
%TO.N,/USER*%
X116840000Y-114300000D03*
%TD*%
D15*
%TO.P,R1,1*%
%TO.N,+3.3V*%
X109220000Y-109220000D03*
D16*
%TO.P,R1,2*%
%TO.N,/MCLR*%
X116840000Y-109220000D03*
%TD*%
D17*
%TO.P,PIC1,1,~{MCLR}*%
%TO.N,/MCLR*%
X121920000Y-109220000D03*
D16*
%TO.P,PIC1,2,A0*%
%TO.N,/A0*%
X121920000Y-111760000D03*
%TO.P,PIC1,3,A1*%
%TO.N,/A1*%
X121920000Y-114300000D03*
%TO.P,PIC1,4,B0*%
%TO.N,/B0*%
X121920000Y-116840000D03*
%TO.P,PIC1,5,B1*%
%TO.N,/B1*%
X121920000Y-119380000D03*
%TO.P,PIC1,6,B2*%
%TO.N,/B2*%
X121920000Y-121920000D03*
%TO.P,PIC1,7,B3*%
%TO.N,/U1TX*%
X121920000Y-124460000D03*
%TO.P,PIC1,8,Vss*%
%TO.N,GND*%
X121920000Y-127000000D03*
%TO.P,PIC1,9,A2*%
%TO.N,/U1RX*%
X121920000Y-129540000D03*
%TO.P,PIC1,10,A3*%
%TO.N,/A3*%
X121920000Y-132080000D03*
%TO.P,PIC1,11,B4*%
%TO.N,/GRN_LED*%
X121920000Y-134620000D03*
%TO.P,PIC1,12,A4*%
%TO.N,/USER*%
X121920000Y-137160000D03*
%TO.P,PIC1,13,Vdd*%
%TO.N,+3.3V*%
X121920000Y-139700000D03*
%TO.P,PIC1,14,B5*%
%TO.N,/YLW_LED*%
X121920000Y-142240000D03*
%TO.P,PIC1,15,B6*%
%TO.N,/B6*%
X129540000Y-142240000D03*
%TO.P,PIC1,16,B7*%
%TO.N,/B7*%
X129540000Y-139700000D03*
%TO.P,PIC1,17,B8*%
%TO.N,/B8*%
X129540000Y-137160000D03*
%TO.P,PIC1,18,B9*%
%TO.N,/B9*%
X129540000Y-134620000D03*
%TO.P,PIC1,19,Vss*%
%TO.N,GND*%
X129540000Y-132080000D03*
%TO.P,PIC1,20,Vcap*%
%TO.N,Net-(PIC1-Vcap)*%
X129540000Y-129540000D03*
%TO.P,PIC1,21,B10*%
%TO.N,/B10*%
X129540000Y-127000000D03*
%TO.P,PIC1,22,B11*%
%TO.N,/B11*%
X129540000Y-124460000D03*
%TO.P,PIC1,23,B12*%
%TO.N,/B12*%
X129540000Y-121920000D03*
%TO.P,PIC1,24,B13*%
%TO.N,/B13*%
X129540000Y-119380000D03*
%TO.P,PIC1,25,B14*%
%TO.N,/B14*%
X129540000Y-116840000D03*
%TO.P,PIC1,26,B15*%
%TO.N,/B15*%
X129540000Y-114300000D03*
%TO.P,PIC1,27,AVss*%
%TO.N,GND*%
X129540000Y-111760000D03*
%TO.P,PIC1,28,AVdd*%
%TO.N,+3.3V*%
X129540000Y-109220000D03*
%TD*%
D10*
%TO.P,Left1,1*%
%TO.N,/A0*%
X101600000Y-111760000D03*
D11*
%TO.P,Left1,2*%
%TO.N,/A1*%
X101600000Y-114300000D03*
%TO.P,Left1,3*%
%TO.N,/B0*%
X101600000Y-116840000D03*
%TO.P,Left1,4*%
%TO.N,/B1*%
X101600000Y-119380000D03*
%TO.P,Left1,5*%
%TO.N,/B2*%
X101600000Y-121920000D03*
%TO.P,Left1,6*%
%TO.N,/A3*%
X101600000Y-124460000D03*
%TO.P,Left1,7*%
%TO.N,/GRN_LED*%
X101600000Y-127000000D03*
%TO.P,Left1,8*%
%TO.N,/YLW_LED*%
X101600000Y-129540000D03*
%TO.P,Left1,9*%
%TO.N,/B6*%
X101600000Y-132080000D03*
%TO.P,Left1,10*%
%TO.N,/Vin*%
X101600000Y-134620000D03*
%TO.P,Left1,11*%
%TO.N,+3.3V*%
X101600000Y-137160000D03*
%TO.P,Left1,12*%
%TO.N,GND*%
X101600000Y-139700000D03*
%TD*%
D18*
%TO.P,D3,1,K*%
%TO.N,Net-(D3-K)*%
X137160000Y-114300000D03*
D19*
%TO.P,D3,2,A*%
%TO.N,+3.3V*%
X137160000Y-111760000D03*
%TD*%
D18*
%TO.P,D2,1,K*%
%TO.N,Net-(D2-K)*%
X134620000Y-142240000D03*
D19*
%TO.P,D2,2,A*%
%TO.N,+3.3V*%
X134620000Y-139700000D03*
%TD*%
D18*
%TO.P,D1,1,K*%
%TO.N,Net-(D1-K)*%
X142240000Y-142240000D03*
D19*
%TO.P,D1,2,A*%
%TO.N,+3.3V*%
X142240000Y-139700000D03*
%TD*%
D15*
%TO.P,C6,1*%
%TO.N,/Vin*%
X106680000Y-119460000D03*
%TO.P,C6,2*%
%TO.N,GND*%
X106680000Y-124460000D03*
%TD*%
%TO.P,C5,2*%
%TO.N,GND*%
X111760000Y-129540000D03*
%TO.P,C5,1*%
%TO.N,+3.3V*%
X106760000Y-129540000D03*
%TD*%
%TO.P,C4,2*%
%TO.N,GND*%
X114300000Y-119460000D03*
%TO.P,C4,1*%
%TO.N,+3.3V*%
X114300000Y-124460000D03*
%TD*%
%TO.P,C3,1*%
%TO.N,Net-(PIC1-Vcap)*%
X137160000Y-124460000D03*
%TO.P,C3,2*%
%TO.N,GND*%
X142160000Y-124460000D03*
%TD*%
%TO.P,C2,1*%
%TO.N,+3.3V*%
X109260000Y-134620000D03*
%TO.P,C2,2*%
%TO.N,GND*%
X111760000Y-134620000D03*
%TD*%
%TO.P,C1,1*%
%TO.N,GND*%
X116840000Y-132080000D03*
%TO.P,C1,2*%
%TO.N,+3.3V*%
X116840000Y-129580000D03*
%TD*%
D10*
%TO.P,Battery1,1*%
%TO.N,GND*%
X104140000Y-104140000D03*
D11*
%TO.P,Battery1,2*%
%TO.N,Net-(Battery1-1)*%
X106680000Y-104140000D03*
%TD*%
D20*
%TO.N,GND*%
X111760000Y-119380000D03*
X111760000Y-105589502D03*
%TO.N,Net-(Battery1-1)*%
X106680000Y-100559500D03*
X137160000Y-100559500D03*
%TO.N,+5V*%
X119380000Y-102870000D03*
%TO.N,/Vin*%
X147320000Y-105410000D03*
%TO.N,+3.3V*%
X118110000Y-129540000D03*
X118289502Y-139700000D03*
%TO.N,/U1RX*%
X125730000Y-105410000D03*
X125730000Y-129540000D03*
%TO.N,/U1TX*%
X114300000Y-107950000D03*
X124460000Y-124460000D03*
X124460000Y-107950000D03*
%TO.N,GND*%
X146050000Y-102870000D03*
X149440500Y-102870000D03*
%TO.N,+3.3V*%
X145870497Y-139700000D03*
%TO.N,/Vin*%
X148590000Y-106680000D03*
%TO.N,/B7*%
X140970000Y-137160000D03*
X138430000Y-140970000D03*
X140970000Y-132080000D03*
X138430000Y-137160000D03*
%TO.N,/B8*%
X143510000Y-135890000D03*
X143510000Y-129540000D03*
%TO.N,/B9*%
X142240000Y-134620000D03*
X142240000Y-128270000D03*
%TO.N,/B10*%
X143510000Y-127000000D03*
X143559503Y-124460000D03*
%TO.N,/B11*%
X132080000Y-123190000D03*
%TO.N,/B14*%
X140970000Y-116840000D03*
X140970000Y-114300000D03*
%TO.N,/B15*%
X139700000Y-115570000D03*
X139700000Y-111760000D03*
X134620000Y-114300000D03*
X134620000Y-115570000D03*
%TO.N,+3.3V*%
X144780000Y-101600000D03*
X109220000Y-101600000D03*
%TO.N,/Vin*%
X102870000Y-134620000D03*
X102870000Y-120650000D03*
%TO.N,/B6*%
X105410000Y-147320000D03*
X129540000Y-147320000D03*
X105410000Y-134620000D03*
%TO.N,/YLW_LED*%
X110490000Y-142240000D03*
X110490000Y-132080000D03*
%TO.N,/GRN_LED*%
X105410000Y-133350000D03*
X105410000Y-127000000D03*
%TO.N,/A3*%
X113030000Y-132080000D03*
X113030000Y-123190000D03*
%TO.N,/GRN_LED*%
X125730000Y-134620000D03*
X137160000Y-146050000D03*
X125730000Y-146050000D03*
X137160000Y-128270000D03*
%TO.N,/YLW_LED*%
X121920000Y-144780000D03*
X132080000Y-129540000D03*
X132080000Y-144780000D03*
%TO.N,+3.3V*%
X144780000Y-139700000D03*
%TO.N,Net-(D1-K)*%
X139700000Y-142240000D03*
%TO.N,Net-(PIC1-Vcap)*%
X132080000Y-124460000D03*
%TO.N,+3.3V*%
X144780000Y-109220000D03*
X137160000Y-109220000D03*
%TO.N,/Vin*%
X134620000Y-106680000D03*
X106680000Y-106680000D03*
%TO.N,/MCLR*%
X116840000Y-127000000D03*
X114300000Y-144780000D03*
X114300000Y-127000000D03*
%TO.N,/USER*%
X119380000Y-144780000D03*
X119380000Y-137160000D03*
X119380000Y-114300000D03*
%TO.N,+3.3V*%
X106680000Y-114300000D03*
X106680000Y-137160000D03*
X104140000Y-109220000D03*
X104140000Y-137160000D03*
%TD*%
D21*
%TO.N,+3.3V*%
X118289502Y-139700000D02*
X121920000Y-139700000D01*
X142240000Y-139700000D02*
X145870497Y-139700000D01*
X142240000Y-139700000D02*
X144780000Y-139700000D01*
%TO.N,GND*%
X104140000Y-105410000D02*
X104319502Y-105589502D01*
X104140000Y-104140000D02*
X104140000Y-105410000D01*
X104140000Y-105410000D02*
X104140000Y-105315000D01*
%TO.N,/B15*%
X139700000Y-111760000D02*
X147320000Y-111760000D01*
%TO.N,/B14*%
X140970000Y-114300000D02*
X147320000Y-114300000D01*
%TO.N,/B13*%
X146489150Y-117670850D02*
X147320000Y-116840000D01*
%TO.N,/B12*%
X129540000Y-121920000D02*
X144780000Y-121920000D01*
X144780000Y-121920000D02*
X147320000Y-119380000D01*
%TO.N,/B11*%
X132080000Y-123190000D02*
X146050000Y-123190000D01*
X146050000Y-123190000D02*
X147320000Y-121920000D01*
%TO.N,/B10*%
X143559503Y-124460000D02*
X147320000Y-124460000D01*
%TO.N,/B9*%
X146050000Y-127000000D02*
X147320000Y-127000000D01*
%TO.N,/B8*%
X143510000Y-129540000D02*
X147320000Y-129540000D01*
%TO.N,/B7*%
X147320000Y-132080000D02*
X146050000Y-132080000D01*
%TO.N,GND*%
X101600000Y-139700000D02*
X106680000Y-139700000D01*
%TO.N,+3.3V*%
X102870000Y-137160000D02*
X102775000Y-137160000D01*
X106680000Y-137160000D02*
X102870000Y-137160000D01*
X102870000Y-137160000D02*
X101600000Y-137160000D01*
%TO.N,/Vin*%
X102870000Y-134620000D02*
X101600000Y-134620000D01*
%TO.N,/B6*%
X102870000Y-132080000D02*
X101600000Y-132080000D01*
%TO.N,/YLW_LED*%
X102870000Y-129540000D02*
X101600000Y-129540000D01*
%TO.N,/GRN_LED*%
X105410000Y-127000000D02*
X101600000Y-127000000D01*
%TO.N,/A3*%
X113030000Y-123190000D02*
X102870000Y-123190000D01*
X102870000Y-123190000D02*
X101600000Y-124460000D01*
%TO.N,/B2*%
X121920000Y-121920000D02*
X101600000Y-121920000D01*
%TO.N,/Vin*%
X102870000Y-120650000D02*
X105490000Y-120650000D01*
X105490000Y-120650000D02*
X106680000Y-119460000D01*
%TO.N,/B1*%
X121920000Y-119380000D02*
X120875000Y-118335000D01*
X120875000Y-118335000D02*
X103820000Y-118335000D01*
X103820000Y-118335000D02*
X102775000Y-119380000D01*
X102775000Y-119380000D02*
X101600000Y-119380000D01*
%TO.N,/B0*%
X101600000Y-116840000D02*
X121920000Y-116840000D01*
%TO.N,/A1*%
X121920000Y-114300000D02*
X120795000Y-115425000D01*
X120795000Y-115425000D02*
X102725000Y-115425000D01*
X102725000Y-115425000D02*
X101600000Y-114300000D01*
%TO.N,/A0*%
X121920000Y-111760000D02*
X101600000Y-111760000D01*
%TO.N,GND*%
X111760000Y-105589502D02*
X104319502Y-105589502D01*
X114300000Y-119460000D02*
X111840000Y-119460000D01*
X111840000Y-119460000D02*
X111760000Y-119380000D01*
%TO.N,Net-(Battery1-1)*%
X106680000Y-100559500D02*
X137160000Y-100559500D01*
%TO.N,+5V*%
X119380000Y-102870000D02*
X130890000Y-102870000D01*
X130890000Y-102870000D02*
X132160000Y-104140000D01*
%TO.N,/Vin*%
X147320000Y-105410000D02*
X135930000Y-105410000D01*
X135930000Y-105410000D02*
X134660000Y-104140000D01*
%TO.N,+3.3V*%
X118070000Y-129580000D02*
X118110000Y-129540000D01*
X116840000Y-129580000D02*
X118070000Y-129580000D01*
%TO.N,/U1RX*%
X121920000Y-129540000D02*
X125730000Y-129540000D01*
X125730000Y-105410000D02*
X118110000Y-105410000D01*
X118110000Y-105410000D02*
X116840000Y-104140000D01*
%TO.N,/U1TX*%
X124460000Y-107950000D02*
X114300000Y-107950000D01*
X121920000Y-124460000D02*
X124460000Y-124460000D01*
%TO.N,GND*%
X146050000Y-102870000D02*
X149440500Y-102870000D01*
%TO.N,/Vin*%
X134620000Y-106680000D02*
X148590000Y-106680000D01*
%TO.N,/B7*%
X140970000Y-132080000D02*
X146050000Y-132080000D01*
X130810000Y-140970000D02*
X138430000Y-140970000D01*
X129540000Y-139700000D02*
X130810000Y-140970000D01*
X138430000Y-137160000D02*
X140970000Y-137160000D01*
%TO.N,/B8*%
X141115000Y-138285000D02*
X143510000Y-135890000D01*
X130665000Y-138285000D02*
X141115000Y-138285000D01*
X129540000Y-137160000D02*
X130665000Y-138285000D01*
%TO.N,/B9*%
X144780000Y-128270000D02*
X146050000Y-127000000D01*
X142240000Y-128270000D02*
X144780000Y-128270000D01*
X129540000Y-134620000D02*
X142240000Y-134620000D01*
%TO.N,/B10*%
X129540000Y-127000000D02*
X143510000Y-127000000D01*
%TO.N,/B13*%
X131249150Y-117670850D02*
X146489150Y-117670850D01*
X129540000Y-119380000D02*
X131249150Y-117670850D01*
%TO.N,/B14*%
X129540000Y-116840000D02*
X140970000Y-116840000D01*
%TO.N,/B15*%
X134620000Y-115570000D02*
X139700000Y-115570000D01*
X129540000Y-114300000D02*
X134620000Y-114300000D01*
%TO.N,+3.3V*%
X109220000Y-101600000D02*
X144780000Y-101600000D01*
%TO.N,/B6*%
X105410000Y-134620000D02*
X102870000Y-132080000D01*
X129540000Y-147320000D02*
X105410000Y-147320000D01*
%TO.N,/YLW_LED*%
X105410000Y-132080000D02*
X102870000Y-129540000D01*
X110490000Y-132080000D02*
X105410000Y-132080000D01*
X121920000Y-142240000D02*
X110490000Y-142240000D01*
%TO.N,/GRN_LED*%
X109580991Y-133350000D02*
X105410000Y-133350000D01*
X110490000Y-135290512D02*
X110490000Y-134259009D01*
X121920000Y-134620000D02*
X120650000Y-135890000D01*
X111089488Y-135890000D02*
X110490000Y-135290512D01*
X110490000Y-134259009D02*
X109580991Y-133350000D01*
X120650000Y-135890000D02*
X111089488Y-135890000D01*
%TO.N,/A3*%
X120795000Y-133205000D02*
X114155000Y-133205000D01*
X114155000Y-133205000D02*
X113030000Y-132080000D01*
X121920000Y-132080000D02*
X120795000Y-133205000D01*
%TO.N,/GRN_LED*%
X125730000Y-134620000D02*
X121920000Y-134620000D01*
X139700000Y-128270000D02*
X137160000Y-128270000D01*
X137160000Y-146050000D02*
X125730000Y-146050000D01*
%TO.N,/YLW_LED*%
X132080000Y-144780000D02*
X121920000Y-144780000D01*
X134620000Y-129540000D02*
X132080000Y-129540000D01*
%TO.N,+3.3V*%
X134620000Y-139700000D02*
X142240000Y-139700000D01*
%TO.N,Net-(D1-K)*%
X139700000Y-142240000D02*
X142240000Y-142240000D01*
%TO.N,Net-(PIC1-Vcap)*%
X137160000Y-124460000D02*
X132080000Y-124460000D01*
%TO.N,+3.3V*%
X144780000Y-109220000D02*
X137160000Y-109220000D01*
X129540000Y-109220000D02*
X137160000Y-109220000D01*
%TO.N,/Vin*%
X106680000Y-106680000D02*
X134620000Y-106680000D01*
%TO.N,+3.3V*%
X116840000Y-129580000D02*
X115755000Y-130665000D01*
X115755000Y-130665000D02*
X107885000Y-130665000D01*
X107885000Y-130665000D02*
X106760000Y-129540000D01*
X114300000Y-124460000D02*
X111840000Y-124460000D01*
X111840000Y-124460000D02*
X106760000Y-129540000D01*
X109260000Y-134620000D02*
X106720000Y-137160000D01*
X106720000Y-137160000D02*
X106680000Y-137160000D01*
%TO.N,/MCLR*%
X106680000Y-144780000D02*
X114300000Y-144780000D01*
X114300000Y-127000000D02*
X116840000Y-127000000D01*
%TO.N,/USER*%
X116840000Y-144780000D02*
X119380000Y-144780000D01*
X116840000Y-114300000D02*
X119380000Y-114300000D01*
X119380000Y-137160000D02*
X121920000Y-137160000D01*
%TO.N,/MCLR*%
X116840000Y-109220000D02*
X121920000Y-109220000D01*
%TO.N,+3.3V*%
X109220000Y-114300000D02*
X106680000Y-114300000D01*
X104140000Y-137160000D02*
X102775000Y-137160000D01*
X109220000Y-109220000D02*
X104140000Y-109220000D01*
%TD*%
D22*
X150000000Y-100000000D02*
X100000000Y-100000000D01*
X150000000Y-150000000D02*
X100000000Y-150000000D01*
X100000000Y-100000000D02*
X100000000Y-150000000D01*
X150000000Y-100000000D02*
X150000000Y-150000000D01*
M02*
