%TF.GenerationSoftware,KiCad,Pcbnew,7.0.1-0*%
%TF.CreationDate,2023-04-17T19:21:01-05:00*%
%TF.ProjectId,project,70726f6a-6563-4742-9e6b-696361645f70,rev?*%
%TF.SameCoordinates,Original*%
%TF.FileFunction,Soldermask,Top*%
%TF.FilePolarity,Negative*%
%FSLAX46Y46*%
G04 Gerber Fmt 4.6, Leading zero omitted, Abs format (unit mm)*
G04 Created by KiCad (PCBNEW 7.0.1-0) date 2023-04-17 19:21:01*
%MOMM*%
%LPD*%
G01*
G04 APERTURE LIST*
%ADD10C,2.100000*%
%ADD11R,1.700000X1.700000*%
%ADD12O,1.700000X1.700000*%
%ADD13R,1.050000X1.500000*%
%ADD14O,1.050000X1.500000*%
%ADD15C,1.700000*%
%ADD16C,1.600000*%
%ADD17O,1.600000X1.600000*%
%ADD18R,1.600000X1.600000*%
%ADD19R,1.800000X1.800000*%
%ADD20C,1.800000*%
%TA.AperFunction,Profile*%
%ADD21C,0.100000*%
%TD*%
G04 APERTURE END LIST*
D10*
%TO.C,REF\u002A\u002A*%
X102870000Y-147320000D03*
%TD*%
%TO.C,REF\u002A\u002A*%
X146050000Y-147320000D03*
%TD*%
D11*
%TO.C,U3*%
X111760000Y-104140000D03*
D12*
X114300000Y-104140000D03*
X116840000Y-104140000D03*
X119380000Y-104140000D03*
X121920000Y-104140000D03*
X124460000Y-104140000D03*
%TD*%
D13*
%TO.C,U2*%
X144780000Y-104140000D03*
D14*
X146050000Y-104140000D03*
X147320000Y-104140000D03*
%TD*%
D15*
%TO.C,SW3*%
X132160000Y-104140000D03*
X134660000Y-104140000D03*
X137160000Y-104140000D03*
%TD*%
D11*
%TO.C,SW2*%
X116840000Y-139700000D03*
D12*
X116840000Y-144780000D03*
%TD*%
D11*
%TO.C,SW1*%
X106680000Y-139700000D03*
D12*
X106680000Y-144780000D03*
%TD*%
D11*
%TO.C,Right1*%
X147320000Y-111760000D03*
D12*
X147320000Y-114300000D03*
X147320000Y-116840000D03*
X147320000Y-119380000D03*
X147320000Y-121920000D03*
X147320000Y-124460000D03*
X147320000Y-127000000D03*
X147320000Y-129540000D03*
X147320000Y-132080000D03*
X147320000Y-134620000D03*
X147320000Y-137160000D03*
X147320000Y-139700000D03*
%TD*%
D16*
%TO.C,R5*%
X135890000Y-119380000D03*
D17*
X143510000Y-119380000D03*
%TD*%
D16*
%TO.C,R4*%
X134620000Y-137160000D03*
D17*
X134620000Y-129540000D03*
%TD*%
D16*
%TO.C,R3*%
X139700000Y-135890000D03*
D17*
X139700000Y-128270000D03*
%TD*%
D16*
%TO.C,R2*%
X109220000Y-114300000D03*
D17*
X116840000Y-114300000D03*
%TD*%
D16*
%TO.C,R1*%
X109220000Y-109220000D03*
D17*
X116840000Y-109220000D03*
%TD*%
D18*
%TO.C,PIC1*%
X121920000Y-109220000D03*
D17*
X121920000Y-111760000D03*
X121920000Y-114300000D03*
X121920000Y-116840000D03*
X121920000Y-119380000D03*
X121920000Y-121920000D03*
X121920000Y-124460000D03*
X121920000Y-127000000D03*
X121920000Y-129540000D03*
X121920000Y-132080000D03*
X121920000Y-134620000D03*
X121920000Y-137160000D03*
X121920000Y-139700000D03*
X121920000Y-142240000D03*
X129540000Y-142240000D03*
X129540000Y-139700000D03*
X129540000Y-137160000D03*
X129540000Y-134620000D03*
X129540000Y-132080000D03*
X129540000Y-129540000D03*
X129540000Y-127000000D03*
X129540000Y-124460000D03*
X129540000Y-121920000D03*
X129540000Y-119380000D03*
X129540000Y-116840000D03*
X129540000Y-114300000D03*
X129540000Y-111760000D03*
X129540000Y-109220000D03*
%TD*%
D11*
%TO.C,Left1*%
X101600000Y-111760000D03*
D12*
X101600000Y-114300000D03*
X101600000Y-116840000D03*
X101600000Y-119380000D03*
X101600000Y-121920000D03*
X101600000Y-124460000D03*
X101600000Y-127000000D03*
X101600000Y-129540000D03*
X101600000Y-132080000D03*
X101600000Y-134620000D03*
X101600000Y-137160000D03*
X101600000Y-139700000D03*
%TD*%
D19*
%TO.C,D3*%
X137160000Y-114300000D03*
D20*
X137160000Y-111760000D03*
%TD*%
D19*
%TO.C,D2*%
X134620000Y-142240000D03*
D20*
X134620000Y-139700000D03*
%TD*%
D19*
%TO.C,D1*%
X142240000Y-142240000D03*
D20*
X142240000Y-139700000D03*
%TD*%
D16*
%TO.C,C6*%
X106680000Y-119460000D03*
X106680000Y-124460000D03*
%TD*%
%TO.C,C5*%
X111760000Y-129540000D03*
X106760000Y-129540000D03*
%TD*%
%TO.C,C4*%
X114300000Y-119460000D03*
X114300000Y-124460000D03*
%TD*%
%TO.C,C3*%
X137160000Y-124460000D03*
X142160000Y-124460000D03*
%TD*%
%TO.C,C2*%
X109260000Y-134620000D03*
X111760000Y-134620000D03*
%TD*%
%TO.C,C1*%
X116840000Y-132080000D03*
X116840000Y-129580000D03*
%TD*%
D11*
%TO.C,Battery1*%
X104140000Y-104140000D03*
D12*
X106680000Y-104140000D03*
%TD*%
D21*
X150000000Y-100000000D02*
X100000000Y-100000000D01*
X150000000Y-150000000D02*
X100000000Y-150000000D01*
X100000000Y-100000000D02*
X100000000Y-150000000D01*
X150000000Y-100000000D02*
X150000000Y-150000000D01*
M02*
